<svg width="50" height="50" viewBox="0 0 50 50" fill="none" xmlns="http://www.w3.org/2000/svg">
<rect width="50" height="50" rx="25" fill="url(#paint0_linear)"/>
<path d="M34.1875 13H15.8125C14.2617 13 13 14.2617 13 15.8125V34.1875C13 35.7383 14.2617 37 15.8125 37H34.1875C35.7383 37 37 35.7383 37 34.1875V15.8125C37 14.2617 35.7383 13 34.1875 13ZM35.125 34.1875C35.125 34.7044 34.7044 35.125 34.1875 35.125H28.8438V27.4844H31.7402L32.2188 24.5781H28.8438V22.5625C28.8438 21.7668 29.4543 21.1562 30.25 21.1562H32.1719V18.25H30.25C27.863 18.25 25.9385 20.1836 25.9385 22.5707V24.5781H23.125V27.4844H25.9385V35.125H15.8125C15.2956 35.125 14.875 34.7044 14.875 34.1875V15.8125C14.875 15.2956 15.2956 14.875 15.8125 14.875H34.1875C34.7044 14.875 35.125 15.2956 35.125 15.8125V34.1875Z" fill="white"/>
<defs>
<linearGradient id="paint0_linear" x1="-7.84695e-07" y1="4" x2="50" y2="50" gradientUnits="userSpaceOnUse">
<stop offset="0.181808" stop-color="#26478D" stop-opacity="0.3"/>
<stop offset="0.838333" stop-color="#26478D"/>
</linearGradient>
</defs>
</svg>
