<svg width="50" height="50" viewBox="0 0 50 50" fill="none" xmlns="http://www.w3.org/2000/svg">
<rect width="50" height="50" rx="25" fill="url(#paint0_linear)"/>
<g clip-path="url(#clip0)">
<path d="M36.9767 20.0561C36.9205 18.7809 36.7143 17.9042 36.4188 17.1445C36.1141 16.3381 35.6453 15.6162 35.031 15.016C34.4309 14.4065 33.7041 13.9329 32.9071 13.6329C32.1431 13.3375 31.2709 13.1313 29.9957 13.0751C28.711 13.0141 28.3031 13 25.0447 13C21.7862 13 21.3784 13.0141 20.0984 13.0703C18.8232 13.1266 17.9465 13.333 17.187 13.6282C16.3805 13.9329 15.6585 14.4018 15.0584 15.016C14.4489 15.6162 13.9755 16.3429 13.6753 17.1399C13.3799 17.9042 13.1737 18.7761 13.1174 20.0513C13.0565 21.336 13.0424 21.7439 13.0424 25.0023C13.0424 28.2608 13.0565 28.6686 13.1127 29.9486C13.1689 31.2238 13.3753 32.1005 13.6707 32.8602C13.9755 33.6666 14.4489 34.3885 15.0584 34.9887C15.6585 35.5982 16.3852 36.0718 17.1823 36.3718C17.9465 36.6672 18.8184 36.8734 20.0938 36.9296C21.3736 36.986 21.7817 36.9999 25.0401 36.9999C28.2986 36.9999 28.7064 36.986 29.9864 36.9296C31.2616 36.8734 32.1383 36.6672 32.8978 36.3718C34.5107 35.7482 35.7859 34.4729 36.4095 32.8602C36.7047 32.096 36.9111 31.2238 36.9674 29.9486C37.0236 28.6686 37.0377 28.2608 37.0377 25.0023C37.0377 21.7439 37.0329 21.336 36.9767 20.0561ZM34.8154 29.8549C34.7638 31.027 34.5669 31.6599 34.4028 32.0819C33.9996 33.1274 33.1697 33.9572 32.1242 34.3605C31.7022 34.5246 31.0647 34.7215 29.8972 34.7729C28.6313 34.8293 28.2517 34.8433 25.0495 34.8433C21.8472 34.8433 21.4628 34.8293 20.2015 34.7729C19.0294 34.7215 18.3965 34.5246 17.9745 34.3605C17.4542 34.1682 16.9806 33.8634 16.5962 33.4649C16.1977 33.0758 15.8929 32.6069 15.7007 32.0866C15.5366 31.6647 15.3397 31.027 15.2882 29.8596C15.2318 28.5937 15.2179 28.2139 15.2179 25.0117C15.2179 21.8095 15.2318 21.425 15.2882 20.1639C15.3397 18.9918 15.5366 18.3589 15.7007 17.9369C15.8929 17.4165 16.1977 16.943 16.601 16.5584C16.99 16.1599 17.4588 15.8552 17.9793 15.6631C18.4012 15.499 19.0389 15.3021 20.2063 15.2504C21.4722 15.1942 21.852 15.1801 25.054 15.1801C28.261 15.1801 28.6407 15.1942 29.902 15.2504C31.0741 15.3021 31.707 15.499 32.129 15.6631C32.6493 15.8552 33.1229 16.1599 33.5073 16.5584C33.9058 16.9476 34.2105 17.4165 34.4028 17.9369C34.5669 18.3589 34.7638 18.9964 34.8154 20.1639C34.8717 21.4298 34.8858 21.8095 34.8858 25.0117C34.8858 28.2139 34.8717 28.589 34.8154 29.8549Z" fill="white"/>
<path d="M25.0445 18.8372C21.6409 18.8372 18.8793 21.5986 18.8793 25.0024C18.8793 28.4063 21.6409 31.1677 25.0445 31.1677C28.4484 31.1677 31.2098 28.4063 31.2098 25.0024C31.2098 21.5986 28.4484 18.8372 25.0445 18.8372ZM25.0445 29.0017C22.8364 29.0017 21.0453 27.2107 21.0453 25.0024C21.0453 22.7941 22.8364 21.0032 25.0445 21.0032C27.2529 21.0032 29.0438 22.7941 29.0438 25.0024C29.0438 27.2107 27.2529 29.0017 25.0445 29.0017V29.0017Z" fill="white"/>
<path d="M32.893 18.5932C32.893 19.3881 32.2486 20.0326 31.4535 20.0326C30.6587 20.0326 30.0142 19.3881 30.0142 18.5932C30.0142 17.7982 30.6587 17.1539 31.4535 17.1539C32.2486 17.1539 32.893 17.7982 32.893 18.5932V18.5932Z" fill="white"/>
</g>
<defs>
<linearGradient id="paint0_linear" x1="50" y1="50" x2="-10.0999" y2="20.7579" gradientUnits="userSpaceOnUse">
<stop stop-color="#405DE6"/>
<stop offset="0.192708" stop-color="#5851BD"/>
<stop offset="0.385417" stop-color="#833AB4"/>
<stop offset="0.609375" stop-color="#E1306C" stop-opacity="0.9"/>
<stop offset="0.786458" stop-color="#FD1D1D" stop-opacity="0.97"/>
<stop offset="1" stop-color="#EAAD38"/>
</linearGradient>
<clipPath id="clip0">
<rect width="24" height="24" fill="white" transform="translate(13 13)"/>
</clipPath>
</defs>
</svg>
