<svg width="50" height="50" viewBox="0 0 50 50" fill="none" xmlns="http://www.w3.org/2000/svg">
<rect width="50" height="50" rx="25" fill="url(#paint0_linear)"/>
<g clip-path="url(#clip0)">
<path d="M38.035 29.9721C37.9644 29.8728 37.5276 29.0754 35.4259 27.4364C33.2257 25.7201 33.5213 25.9988 36.1714 23.0312C37.7854 21.2239 38.4307 20.1203 38.2287 19.6484C38.0366 19.1987 36.8495 19.3173 36.8495 19.3173L32.9022 19.3366C32.9022 19.3366 32.61 19.3035 32.3916 19.4125C32.1798 19.5201 32.0435 19.7684 32.0435 19.7684C32.0435 19.7684 31.4179 21.1674 30.5838 22.3566C28.8253 24.8661 28.1209 24.9986 27.8335 24.8427C27.1653 24.4798 27.3327 23.3831 27.3327 22.6049C27.3327 20.1727 27.7712 19.1587 26.4773 18.8965C26.0471 18.8096 25.7318 18.7517 24.6334 18.742C23.2246 18.7296 22.0309 18.7462 21.356 19.0235C20.9062 19.2083 20.5597 19.6208 20.7715 19.6443C21.0326 19.6733 21.6237 19.7781 21.9373 20.1368C22.3429 20.599 22.3281 21.6392 22.3281 21.6392C22.3281 21.6392 22.5612 24.5019 21.7846 24.8579C21.251 25.1021 20.5203 24.604 18.9522 22.3263C18.1493 21.1605 17.5418 19.8705 17.5418 19.8705C17.5418 19.8705 17.4252 19.6305 17.2167 19.5022C16.9638 19.3463 16.6092 19.2966 16.6092 19.2966L12.8557 19.3159C12.8557 19.3159 12.2925 19.3297 12.0856 19.5353C11.9017 19.7188 12.0708 20.0968 12.0708 20.0968C12.0708 20.0968 15.0099 25.8733 18.3365 28.7856C21.3889 31.4552 24.8534 31.28 24.8534 31.28H26.4231C26.4231 31.28 26.8976 31.2358 27.139 31.0165C27.3623 30.8151 27.3541 30.437 27.3541 30.437C27.3541 30.437 27.3229 28.667 28.3015 28.4062C29.2653 28.1496 30.5034 30.117 31.8153 30.8744C32.807 31.4469 33.5607 31.3214 33.5607 31.3214L37.0695 31.28C37.0695 31.28 38.9052 31.1848 38.035 29.9721Z" fill="white"/>
</g>
<defs>
<linearGradient id="paint0_linear" x1="43.5" y1="58" x2="0" y2="0" gradientUnits="userSpaceOnUse">
<stop offset="0.229167" stop-color="#4B6F9C"/>
<stop offset="0.71875" stop-color="#4B6F9C" stop-opacity="0.3"/>
</linearGradient>
<clipPath id="clip0">
<rect width="26.2693" height="22.0723" fill="white" transform="translate(12 14)"/>
</clipPath>
</defs>
</svg>
