<svg width="50" height="50" viewBox="0 0 50 50" fill="none" xmlns="http://www.w3.org/2000/svg">
<rect width="50" height="50" rx="25" fill="url(#paint0_linear)"/>
<path d="M25.0032 12H24.9968C17.8289 12 12 17.8305 12 25C12 27.8438 12.9165 30.4795 14.4749 32.6196L12.8548 37.4491L17.8516 35.8518C19.9073 37.2135 22.3594 38 25.0032 38C32.1711 38 38 32.1679 38 25C38 17.8321 32.1711 12 25.0032 12ZM32.5676 30.3576C32.254 31.2432 31.0092 31.9777 30.0164 32.1922C29.3371 32.3369 28.4499 32.4523 25.4631 31.214C21.6427 29.6313 19.1825 25.7491 18.9908 25.4972C18.8071 25.2454 17.447 23.4416 17.447 21.5761C17.447 19.7106 18.3944 18.8023 18.7763 18.4123C19.0899 18.0921 19.6082 17.9459 20.1055 17.9459C20.2664 17.9459 20.411 17.954 20.541 17.9605C20.9229 17.9767 21.1146 17.9995 21.3665 18.6024C21.6801 19.358 22.4439 21.2235 22.5349 21.4153C22.6275 21.607 22.7201 21.867 22.5901 22.1189C22.4683 22.3789 22.361 22.4942 22.1692 22.7152C21.9775 22.9362 21.7955 23.1053 21.6037 23.3425C21.4282 23.5489 21.23 23.7699 21.451 24.1518C21.672 24.5255 22.4357 25.7719 23.5602 26.7729C25.0114 28.0647 26.1879 28.4775 26.6087 28.653C26.9224 28.783 27.2961 28.7521 27.5252 28.5084C27.8161 28.1948 28.1752 27.6748 28.5409 27.1629C28.8009 26.7956 29.1291 26.7501 29.4736 26.8801C29.8246 27.002 31.682 27.9201 32.0639 28.1102C32.4458 28.302 32.6976 28.393 32.7902 28.5539C32.8812 28.7148 32.8812 29.4704 32.5676 30.3576Z" fill="white"/>
<defs>
<linearGradient id="paint0_linear" x1="0" y1="0" x2="50" y2="50" gradientUnits="userSpaceOnUse">
<stop offset="0.308551" stop-color="#3AB429" stop-opacity="0.5"/>
<stop offset="0.706705" stop-color="#148E0C"/>
</linearGradient>
</defs>
</svg>
