<svg width="50" height="50" viewBox="0 0 50 50" fill="none" xmlns="http://www.w3.org/2000/svg">
<rect width="50" height="50" rx="25" fill="url(#paint0_linear)"/>
<g clip-path="url(#clip0)">
<path d="M24.9991 33.7183C24.9971 33.7183 24.9949 33.7183 24.9927 33.7183C24.2685 33.7134 17.8664 33.6549 16.0525 33.1644C14.7849 32.8236 13.7842 31.8241 13.4426 30.5562C12.9679 28.7744 12.9982 25.344 13.0014 25.07C12.9983 24.7974 12.9678 21.3385 13.4411 19.5421C13.4416 19.5404 13.442 19.5386 13.4426 19.5369C13.7804 18.2836 14.8036 17.2531 16.0494 16.9114C16.0525 16.9105 16.0558 16.9097 16.0589 16.9088C17.8523 16.4375 24.267 16.3798 24.9927 16.3749H25.0057C25.7317 16.3798 32.1508 16.4382 33.948 16.9295C35.2124 17.2694 36.2123 18.2676 36.5549 19.5338C37.0473 21.3316 37.0017 24.7979 36.9967 25.0905C37.0002 25.3787 37.029 28.7785 36.5571 30.5692C36.5567 30.5711 36.5562 30.5727 36.5558 30.5744C36.214 31.8422 35.2135 32.8418 33.9444 33.1829C33.9427 33.1834 33.9409 33.1838 33.9392 33.1844C32.1461 33.6555 25.7311 33.7132 25.0057 33.7183C25.0035 33.7183 25.0013 33.7183 24.9991 33.7183V33.7183ZM15.2535 20.0229C14.8367 21.6086 14.8761 25.0233 14.8765 25.0578V25.0825C14.864 26.0295 14.9078 28.7721 15.2537 30.071C15.4214 30.693 15.9148 31.1858 16.5407 31.354C17.879 31.716 23.0933 31.8299 24.9991 31.8433C26.9098 31.8299 32.1318 31.7192 33.4602 31.3716C34.0841 31.2028 34.5759 30.7117 34.7447 30.089C35.091 28.771 35.1344 26.0418 35.1217 25.1008C35.1217 25.0909 35.1217 25.081 35.1219 25.0711C35.1391 24.1127 35.1052 21.3381 34.7464 20.0288C34.746 20.0275 34.7456 20.0262 34.7454 20.0249C34.577 19.4002 34.0833 18.9074 33.4575 18.7391C32.1322 18.3768 26.9094 18.2632 24.9991 18.2499C23.0897 18.2632 17.8728 18.3738 16.5403 18.721C15.9264 18.8913 15.4217 19.4016 15.2535 20.0229V20.0229ZM35.6505 30.3305H35.6511H35.6505ZM22.6094 28.8433V21.2497L29.1719 25.0466L22.6094 28.8433Z" fill="white"/>
</g>
<defs>
<linearGradient id="paint0_linear" x1="0" y1="0" x2="50" y2="50" gradientUnits="userSpaceOnUse">
<stop offset="0.151042" stop-color="#FF0000"/>
<stop offset="0.661122" stop-color="#880808"/>
</linearGradient>
<clipPath id="clip0">
<rect width="24" height="24" fill="white" transform="translate(13 13)"/>
</clipPath>
</defs>
</svg>
