<?xml version="1.0" encoding="utf-8"?>
<svg width="103px" height="104px" viewBox="0 0 103 104" version="1.1" xmlns:xlink="http://www.w3.org/1999/xlink" xmlns="http://www.w3.org/2000/svg">
  <desc>Created with Lunacy</desc>
  <path d="M7.999 0L92.001 0Q92.1974 0 92.3935 0.00963514Q92.5896 0.0192703 92.785 0.0385174Q92.9805 0.0577644 93.1747 0.0865771Q93.3689 0.11539 93.5615 0.153699Q93.7541 0.192007 93.9446 0.23972Q94.1351 0.287433 94.323 0.344434Q94.5109 0.401436 94.6958 0.467589Q94.8807 0.533742 95.0621 0.608888Q95.2435 0.684033 95.421 0.76799Q95.5985 0.851946 95.7717 0.944512Q95.9449 1.03708 96.1133 1.13803Q96.2817 1.23898 96.445 1.34807Q96.6083 1.45717 96.766 1.57414Q96.9237 1.69112 97.0755 1.81569Q97.2273 1.94026 97.3728 2.07213Q97.5183 2.204 97.6571 2.34285Q97.796 2.4817 97.9279 2.6272Q98.0597 2.7727 98.1843 2.92449Q98.3089 3.07628 98.4258 3.234Q98.5428 3.39172 98.6519 3.55499Q98.761 3.71826 98.862 3.88669Q98.9629 4.05512 99.0555 4.2283Q99.148 4.40148 99.232 4.57899Q99.316 4.7565 99.3911 4.93791Q99.4662 5.11933 99.5324 5.30422Q99.5986 5.4891 99.6556 5.67701Q99.7126 5.86492 99.7603 6.0554Q99.808 6.24588 99.8463 6.43847Q99.8846 6.63106 99.9134 6.8253Q99.9422 7.01954 99.9615 7.21496Q99.9807 7.41038 99.9904 7.60651Q100 7.80264 100 7.999L100 92.001Q100 92.1974 99.9904 92.3935Q99.9807 92.5896 99.9615 92.785Q99.9422 92.9805 99.9134 93.1747Q99.8846 93.3689 99.8463 93.5615Q99.808 93.7541 99.7603 93.9446Q99.7126 94.1351 99.6556 94.323Q99.5985 94.5109 99.5324 94.6958Q99.4662 94.8807 99.3911 95.0621Q99.3159 95.2435 99.232 95.421Q99.148 95.5985 99.0555 95.7717Q98.9629 95.9449 98.862 96.1133Q98.761 96.2817 98.6519 96.445Q98.5428 96.6083 98.4258 96.766Q98.3089 96.9237 98.1843 97.0755Q98.0597 97.2273 97.9279 97.3728Q97.796 97.5183 97.6571 97.6571Q97.5183 97.796 97.3728 97.9279Q97.2273 98.0597 97.0755 98.1843Q96.9237 98.3089 96.766 98.4258Q96.6083 98.5428 96.445 98.6519Q96.2817 98.761 96.1133 98.862Q95.9449 98.9629 95.7717 99.0555Q95.5985 99.148 95.421 99.232Q95.2435 99.316 95.0621 99.3911Q94.8807 99.4662 94.6958 99.5324Q94.5109 99.5986 94.323 99.6556Q94.1351 99.7126 93.9446 99.7603Q93.7541 99.808 93.5615 99.8463Q93.3689 99.8846 93.1747 99.9134Q92.9805 99.9422 92.785 99.9615Q92.5896 99.9807 92.3935 99.9904Q92.1974 100 92.001 100L7.999 100Q7.80264 100 7.60651 99.9904Q7.41038 99.9807 7.21496 99.9615Q7.01954 99.9422 6.8253 99.9134Q6.63106 99.8846 6.43847 99.8463Q6.24588 99.808 6.0554 99.7603Q5.86492 99.7126 5.67701 99.6556Q5.4891 99.5985 5.30422 99.5324Q5.11933 99.4662 4.93791 99.3911Q4.7565 99.3159 4.57899 99.232Q4.40148 99.148 4.2283 99.0555Q4.05512 98.9629 3.88669 98.862Q3.71826 98.761 3.55499 98.6519Q3.39172 98.5428 3.234 98.4258Q3.07628 98.3089 2.92449 98.1843Q2.7727 98.0597 2.6272 97.9279Q2.4817 97.796 2.34285 97.6571Q2.204 97.5183 2.07213 97.3728Q1.94026 97.2273 1.81569 97.0755Q1.69112 96.9237 1.57414 96.766Q1.45717 96.6083 1.34807 96.445Q1.23898 96.2817 1.13803 96.1133Q1.03708 95.9449 0.944512 95.7717Q0.851946 95.5985 0.76799 95.421Q0.684033 95.2435 0.608888 95.0621Q0.533742 94.8807 0.467589 94.6958Q0.401436 94.5109 0.344434 94.323Q0.287433 94.1351 0.23972 93.9446Q0.192007 93.7541 0.153699 93.5615Q0.11539 93.3689 0.0865771 93.1747Q0.0577644 92.9805 0.0385174 92.785Q0.0192703 92.5896 0.00963514 92.3935Q0 92.1974 0 92.001L0 7.999Q0 7.80264 0.00963514 7.60651Q0.0192703 7.41038 0.0385174 7.21496Q0.0577644 7.01954 0.0865771 6.8253Q0.11539 6.63106 0.153699 6.43847Q0.192007 6.24588 0.23972 6.0554Q0.287433 5.86492 0.344434 5.67701Q0.401436 5.4891 0.467589 5.30422Q0.533742 5.11933 0.608888 4.93791Q0.684033 4.7565 0.76799 4.57899Q0.851946 4.40148 0.944512 4.2283Q1.03708 4.05512 1.13803 3.88669Q1.23898 3.71826 1.34807 3.55499Q1.45717 3.39172 1.57414 3.234Q1.69112 3.07628 1.81569 2.92449Q1.94026 2.7727 2.07213 2.6272Q2.204 2.4817 2.34285 2.34285Q2.4817 2.204 2.6272 2.07213Q2.7727 1.94026 2.92449 1.81569Q3.07628 1.69112 3.234 1.57414Q3.39172 1.45717 3.55499 1.34807Q3.71826 1.23898 3.88669 1.13803Q4.05512 1.03708 4.2283 0.944512Q4.40148 0.851946 4.57899 0.76799Q4.7565 0.684033 4.93791 0.608888Q5.11933 0.533742 5.30422 0.467589Q5.4891 0.401436 5.67701 0.344434Q5.86492 0.287433 6.0554 0.23972Q6.24588 0.192007 6.43847 0.153699Q6.63106 0.11539 6.8253 0.0865771Q7.01954 0.0577644 7.21496 0.0385174Q7.41038 0.0192703 7.60651 0.00963514Q7.80264 0 7.999 0Z" transform="translate(1.5 1.5)" id="Rectangle" fill="none" stroke="#008B8B" stroke-width="3" />
  <path d="M0 0L62.069 0L29.1716 0" transform="translate(19.5 35.49998)" id="Line" fill="none" stroke="#008B8B" stroke-width="3" />
  <path d="M0 0.775862L62.069 0.775862" transform="translate(19.5 51.49998)" id="Line-Copy" fill="none" stroke="#008B8B" stroke-width="3" />
  <path d="M0 0.775862L62.069 0.775862" transform="translate(19.56897 67.94832)" id="Line-Copy-2" fill="none" stroke="#008B8B" stroke-width="3" />
</svg>