<svg id="Capa_1" enable-background="new 0 0 284.539 284.539" height="512" viewBox="0 0 284.539 284.539" width="512" xmlns="http://www.w3.org/2000/svg"><path d="m264.384 284.539h-244.229c-11.111 0-20.155-9.039-20.155-20.155v-202.734c0-2.622 2.125-4.742 4.742-4.742h275.054c2.618 0 4.742 2.12 4.742 4.742v202.734c.001 11.116-9.043 20.155-20.154 20.155zm-254.899-218.147v197.992c0 5.88 4.785 10.67 10.67 10.67h244.229c5.885 0 10.67-4.79 10.67-10.67v-197.992z"/><path d="m279.796 66.392h-275.054c-2.617 0-4.742-2.119-4.742-4.742v-22.526c0-11.116 9.044-20.155 20.155-20.155h244.229c11.111 0 20.155 9.039 20.155 20.155v22.526c0 2.623-2.125 4.742-4.743 4.742zm-270.311-9.484h265.57v-17.784c0-5.88-4.785-10.67-10.67-10.67h-244.23c-5.885 0-10.67 4.79-10.67 10.67z"/><path d="m52.165 47.423c-2.618 0-4.742-2.12-4.742-4.742s2.125-4.742 4.742-4.742c7.844 0 14.227-6.383 14.227-14.227s-6.383-14.227-14.227-14.227-14.227 6.383-14.227 14.227c0 2.622-2.125 4.742-4.742 4.742s-4.742-2.12-4.742-4.742c0-13.075 10.637-23.712 23.711-23.712s23.712 10.637 23.712 23.712-10.637 23.711-23.712 23.711z"/><path d="m113.816 47.423c-2.618 0-4.742-2.12-4.742-4.742s2.125-4.742 4.742-4.742c7.844 0 14.227-6.383 14.227-14.227s-6.383-14.227-14.227-14.227-14.227 6.383-14.227 14.227c0 2.622-2.125 4.742-4.742 4.742-2.618 0-4.742-2.12-4.742-4.742-.001-13.075 10.636-23.712 23.711-23.712s23.712 10.637 23.712 23.712-10.638 23.711-23.712 23.711z"/><path d="m175.466 47.423c-2.618 0-4.742-2.12-4.742-4.742s2.125-4.742 4.742-4.742c7.844 0 14.227-6.383 14.227-14.227s-6.383-14.227-14.227-14.227-14.227 6.383-14.227 14.227c0 2.622-2.125 4.742-4.742 4.742s-4.742-2.12-4.742-4.742c-.001-13.075 10.636-23.712 23.711-23.712s23.712 10.637 23.712 23.712-10.638 23.711-23.712 23.711z"/><path d="m232.373 47.423c-2.618 0-4.742-2.12-4.742-4.742s2.125-4.742 4.742-4.742c7.844 0 14.227-6.383 14.227-14.227s-6.383-14.227-14.227-14.227-14.227 6.383-14.227 14.227c0 2.622-2.125 4.742-4.742 4.742-2.618 0-4.742-2.12-4.742-4.742 0-13.075 10.637-23.712 23.711-23.712 13.075 0 23.712 10.637 23.712 23.712s-10.637 23.711-23.712 23.711z"/><path d="m174.308 237.111c-.593 0-1.195-.071-1.788-.218-2.637-.65-4.728-2.679-5.454-5.297-5.88-21.146-16.285-42.558-24.798-42.558s-18.917 21.412-24.798 42.558c-.726 2.618-2.817 4.647-5.454 5.297-2.618.659-5.387-.175-7.227-2.129-11.296-12.031-10.395-35.923-10.352-36.933-.005-6.293 1.342-14.369 3.998-23.802 1.181-4.187.398-8.683-2.148-12.33-.469-.673-.911-1.337-1.337-1.997-6.274-9.76-9.589-21.407-9.589-33.694v-5.819c0-20.046 20.904-25.343 31.958-25.343 11.884 0 20.401 5.819 24.949 9.949 4.548-4.131 13.06-9.949 24.949-9.949 11.054 0 31.958 5.297 31.958 25.348v5.819c0 12.287-3.315 23.934-9.584 33.689-.427.664-.877 1.328-1.337 1.997-2.551 3.656-3.334 8.152-2.153 12.34 2.656 9.428 4.003 17.504 4.003 24.006.038.806.939 24.698-10.357 36.729-1.422 1.502-3.404 2.337-5.439 2.337zm-32.039-57.558c16.788 0 27.951 29.426 32.831 45.687 5.036-8.323 5.733-21.9 5.525-27.007-.005-7.213-1.987-15.721-3.652-21.63-1.954-6.938-.683-14.346 3.5-20.33.394-.564.778-1.138 1.143-1.707 5.283-8.223 8.076-18.097 8.076-28.558v-5.819c0-15.678-21.559-15.858-22.474-15.858-13.198 0-20.852 9.779-21.17 10.196-.896 1.171-2.295 1.868-3.77 1.868-.005 0-.014 0-.024 0-1.48-.009-2.883-.697-3.775-1.883-.308-.403-7.962-10.182-21.16-10.182-.906.005-22.474.28-22.474 15.863v5.819c0 10.462 2.793 20.335 8.081 28.553.365.564.749 1.138 1.148 1.717 4.173 5.975 5.444 13.383 3.49 20.321-1.665 5.904-3.647 14.417-3.647 21.431-.213 5.283.484 18.879 5.52 27.207 4.881-16.261 16.045-45.688 32.832-45.688z"/><path d="m123.3 128.042c-2.618 0-4.742-2.12-4.742-4.742s2.125-4.742 4.742-4.742c4.861 0 12.017-6.137 15.389-10.006 1.717-1.968 4.709-2.191 6.691-.465 1.978 1.712 2.186 4.704.474 6.682-1.18 1.356-11.817 13.273-22.554 13.273z"/><path d="m47.423 258.048-20.933-20.933 20.933-20.933 20.933 20.933zm-7.521-20.932 7.521 7.521 7.521-7.521-7.521-7.521z"/><path d="m47.423 227.631c-2.618 0-4.742-2.12-4.742-4.742v-9.485c0-2.623 2.125-4.742 4.742-4.742 2.618 0 4.742 2.12 4.742 4.742v9.485c0 2.622-2.124 4.742-4.742 4.742z"/><path d="m71.135 241.858h-9.485c-2.618 0-4.742-2.12-4.742-4.742 0-2.623 2.125-4.742 4.742-4.742h9.485c2.618 0 4.742 2.12 4.742 4.742s-2.125 4.742-4.742 4.742z"/><path d="m47.423 265.57c-2.618 0-4.742-2.12-4.742-4.742v-9.485c0-2.622 2.125-4.742 4.742-4.742 2.618 0 4.742 2.12 4.742 4.742v9.485c0 2.622-2.124 4.742-4.742 4.742z"/><path d="m33.196 241.858h-9.485c-2.618 0-4.742-2.12-4.742-4.742 0-2.623 2.125-4.742 4.742-4.742h9.485c2.618 0 4.742 2.12 4.742 4.742.001 2.622-2.124 4.742-4.742 4.742z"/><path d="m237.116 125.263-20.933-20.933 20.933-20.933 20.933 20.933zm-7.522-20.932 7.521 7.521 7.521-7.521-7.521-7.521z"/><path d="m237.116 94.846c-2.618 0-4.742-2.12-4.742-4.742v-9.485c0-2.622 2.125-4.742 4.742-4.742 2.618 0 4.742 2.12 4.742 4.742v9.485c0 2.622-2.125 4.742-4.742 4.742z"/><path d="m260.827 109.073h-9.485c-2.618 0-4.742-2.12-4.742-4.742s2.125-4.742 4.742-4.742h9.485c2.618 0 4.742 2.12 4.742 4.742.001 2.622-2.124 4.742-4.742 4.742z"/><path d="m237.116 132.785c-2.618 0-4.742-2.12-4.742-4.742v-9.485c0-2.622 2.125-4.742 4.742-4.742 2.618 0 4.742 2.12 4.742 4.742v9.485c0 2.622-2.125 4.742-4.742 4.742z"/><path d="m222.889 109.073h-9.485c-2.618 0-4.742-2.12-4.742-4.742s2.125-4.742 4.742-4.742h9.485c2.618 0 4.742 2.12 4.742 4.742s-2.125 4.742-4.742 4.742z"/></svg>