<svg width="189" height="50" viewBox="0 0 189 50" fill="none" xmlns="http://www.w3.org/2000/svg">
<rect x="0.5" y="0.5" width="187" height="49" rx="24.5" stroke="#97C8EB"/>
<path d="M30.9346 32H28.8613V18.0566H21.1484V32H19.0859V16.3594H30.9346V32ZM33.8564 26.0811C33.8564 24.9424 34.0785 23.9183 34.5225 23.0088C34.9736 22.0993 35.5967 21.3975 36.3916 20.9033C37.1937 20.4092 38.1068 20.1621 39.1309 20.1621C40.7135 20.1621 41.9919 20.71 42.9658 21.8057C43.9469 22.9014 44.4375 24.3587 44.4375 26.1777V26.3174C44.4375 27.4489 44.2191 28.4658 43.7822 29.3682C43.3525 30.2633 42.7331 30.9616 41.9238 31.4629C41.1217 31.9642 40.1979 32.2148 39.1523 32.2148C37.5768 32.2148 36.2985 31.667 35.3174 30.5713C34.3434 29.4756 33.8564 28.0254 33.8564 26.2207V26.0811ZM35.8545 26.3174C35.8545 27.6064 36.1517 28.6413 36.7461 29.4219C37.3477 30.2025 38.1497 30.5928 39.1523 30.5928C40.1621 30.5928 40.9642 30.1989 41.5586 29.4111C42.153 28.6162 42.4502 27.5062 42.4502 26.0811C42.4502 24.8063 42.1458 23.7751 41.5371 22.9873C40.9355 22.1924 40.1335 21.7949 39.1309 21.7949C38.1497 21.7949 37.3584 22.1852 36.7568 22.9658C36.1553 23.7464 35.8545 24.8636 35.8545 26.3174ZM46.0596 30.3779L46.7471 29.5293C47.5205 28.5267 47.9609 27.0228 48.0684 25.0176L48.251 20.377H55.7383V30.3779H57.2314V35.416H55.2441V32H47.1338V35.416H45.1465L45.1572 30.3779H46.0596ZM48.4121 30.3779H53.751V22.2139H50.1738L50.0557 24.9854C49.9339 27.2985 49.3861 29.096 48.4121 30.3779ZM69.252 26.3174C69.252 28.0863 68.8473 29.5114 68.0381 30.5928C67.2288 31.6742 66.1331 32.2148 64.751 32.2148C63.3402 32.2148 62.2301 31.7673 61.4209 30.8721V36.4688H59.4336V20.377H61.249L61.3457 21.666C62.1549 20.6634 63.2793 20.1621 64.7188 20.1621C66.1152 20.1621 67.2181 20.6885 68.0273 21.7412C68.8438 22.7939 69.252 24.2585 69.252 26.1348V26.3174ZM67.2646 26.0918C67.2646 24.7812 66.9854 23.7464 66.4268 22.9873C65.8682 22.2282 65.1019 21.8486 64.1279 21.8486C62.9248 21.8486 62.0225 22.3822 61.4209 23.4492V29.0029C62.0153 30.0628 62.9248 30.5928 64.1494 30.5928C65.1019 30.5928 65.8574 30.2168 66.416 29.4648C66.9818 28.7057 67.2646 27.5814 67.2646 26.0918ZM71.2607 26.0811C71.2607 24.9424 71.4827 23.9183 71.9268 23.0088C72.3779 22.0993 73.001 21.3975 73.7959 20.9033C74.598 20.4092 75.5111 20.1621 76.5352 20.1621C78.1178 20.1621 79.3962 20.71 80.3701 21.8057C81.3512 22.9014 81.8418 24.3587 81.8418 26.1777V26.3174C81.8418 27.4489 81.6234 28.4658 81.1865 29.3682C80.7568 30.2633 80.1374 30.9616 79.3281 31.4629C78.526 31.9642 77.6022 32.2148 76.5566 32.2148C74.9811 32.2148 73.7028 31.667 72.7217 30.5713C71.7477 29.4756 71.2607 28.0254 71.2607 26.2207V26.0811ZM73.2588 26.3174C73.2588 27.6064 73.556 28.6413 74.1504 29.4219C74.752 30.2025 75.554 30.5928 76.5566 30.5928C77.5664 30.5928 78.3685 30.1989 78.9629 29.4111C79.5573 28.6162 79.8545 27.5062 79.8545 26.0811C79.8545 24.8063 79.5501 23.7751 78.9414 22.9873C78.3398 22.1924 77.5378 21.7949 76.5352 21.7949C75.554 21.7949 74.7627 22.1852 74.1611 22.9658C73.5596 23.7464 73.2588 24.8636 73.2588 26.3174ZM89.4365 21.043C90.8975 21.043 92.0648 21.5335 92.9385 22.5146C93.8193 23.4886 94.2598 24.7741 94.2598 26.3711V26.5537C94.2598 27.6494 94.0485 28.6305 93.626 29.4971C93.2035 30.3564 92.5947 31.026 91.7998 31.5059C91.012 31.9785 90.1025 32.2148 89.0713 32.2148C87.5101 32.2148 86.2533 31.6956 85.3008 30.6572C84.3483 29.6117 83.8721 28.2116 83.8721 26.457V25.4902C83.8721 23.0482 84.3232 21.1074 85.2256 19.668C86.1351 18.2285 87.4743 17.3512 89.2432 17.0361C90.2458 16.8571 90.9225 16.6387 91.2734 16.3809C91.6243 16.123 91.7998 15.7686 91.7998 15.3174H93.4326C93.4326 16.2126 93.2285 16.9108 92.8203 17.4121C92.4193 17.9134 91.7747 18.2679 90.8867 18.4756L89.4043 18.8086C88.2227 19.0879 87.3346 19.5605 86.7402 20.2266C86.153 20.8854 85.7699 21.7663 85.5908 22.8691C86.6436 21.6517 87.9255 21.043 89.4365 21.043ZM89.0498 22.6758C88.0758 22.6758 87.3024 23.0052 86.7295 23.6641C86.1566 24.3158 85.8701 25.2217 85.8701 26.3818V26.5537C85.8701 27.7998 86.1566 28.7881 86.7295 29.5186C87.3096 30.2419 88.0902 30.6035 89.0713 30.6035C90.0596 30.6035 90.8402 30.2383 91.4131 29.5078C91.986 28.7773 92.2725 27.7103 92.2725 26.3066C92.2725 25.2109 91.9824 24.3337 91.4023 23.6748C90.8294 23.0088 90.0452 22.6758 89.0498 22.6758ZM105.797 32H103.81V27.0371H98.4707V32H96.4727V20.377H98.4707V25.415H103.81V20.377H105.797V32ZM113.821 32.2148C112.246 32.2148 110.964 31.6992 109.976 30.668C108.987 29.6296 108.493 28.2438 108.493 26.5107V26.1455C108.493 24.9925 108.712 23.9648 109.148 23.0625C109.592 22.153 110.208 21.444 110.996 20.9355C111.791 20.4199 112.65 20.1621 113.574 20.1621C115.085 20.1621 116.26 20.6598 117.098 21.6553C117.936 22.6507 118.354 24.0758 118.354 25.9307V26.7578H110.48C110.509 27.9036 110.842 28.8311 111.479 29.54C112.124 30.2419 112.94 30.5928 113.929 30.5928C114.631 30.5928 115.225 30.4495 115.712 30.1631C116.199 29.8766 116.625 29.4971 116.99 29.0244L118.204 29.9697C117.23 31.4665 115.769 32.2148 113.821 32.2148ZM113.574 21.7949C112.772 21.7949 112.099 22.0885 111.555 22.6758C111.01 23.2559 110.674 24.0723 110.545 25.125H116.367V24.9746C116.31 23.9648 116.038 23.1842 115.551 22.6328C115.064 22.0742 114.405 21.7949 113.574 21.7949ZM125.487 32.2148C123.912 32.2148 122.63 31.6992 121.642 30.668C120.653 29.6296 120.159 28.2438 120.159 26.5107V26.1455C120.159 24.9925 120.378 23.9648 120.814 23.0625C121.258 22.153 121.874 21.444 122.662 20.9355C123.457 20.4199 124.316 20.1621 125.24 20.1621C126.751 20.1621 127.926 20.6598 128.764 21.6553C129.602 22.6507 130.021 24.0758 130.021 25.9307V26.7578H122.146C122.175 27.9036 122.508 28.8311 123.146 29.54C123.79 30.2419 124.606 30.5928 125.595 30.5928C126.297 30.5928 126.891 30.4495 127.378 30.1631C127.865 29.8766 128.291 29.4971 128.656 29.0244L129.87 29.9697C128.896 31.4665 127.435 32.2148 125.487 32.2148ZM125.24 21.7949C124.438 21.7949 123.765 22.0885 123.221 22.6758C122.676 23.2559 122.34 24.0723 122.211 25.125H128.033V24.9746C127.976 23.9648 127.704 23.1842 127.217 22.6328C126.73 22.0742 126.071 21.7949 125.24 21.7949Z" fill="#97C8EB"/>
<g clip-path="url(#clip0)">
<path d="M138.928 24.9997C138.928 38.215 150.121 48.9282 163.928 48.9282C177.736 48.9282 188.928 38.215 188.928 24.9997C188.928 11.7843 177.736 1.07108 163.928 1.07108C150.121 1.07108 138.928 11.7843 138.928 24.9997ZM165.033 19.4556L172.065 26.1855C172.37 26.4775 172.522 26.8603 172.522 27.243C172.522 28.5633 170.842 29.2452 169.855 28.3004L163.929 22.628L158.002 28.3004C157.392 28.8845 156.403 28.8845 155.792 28.3004C155.182 27.7164 155.182 26.7694 155.792 26.1854L162.824 19.4555C163.434 18.8715 164.423 18.8715 165.033 19.4556Z" fill="#97C8EB"/>
</g>
<defs>
<clipPath id="clip0">
<rect width="47.8571" height="50" fill="white" transform="translate(138.928 48.9282) rotate(-90)"/>
</clipPath>
</defs>
</svg>
