<svg width="189" height="51" viewBox="0 0 189 51" fill="none" xmlns="http://www.w3.org/2000/svg">
<rect x="0.5" y="1.5" width="188" height="49" rx="24.5" stroke="#97C8EB"/>
<path d="M30.9346 33H28.8613V19.0566H21.1484V33H19.0859V17.3594H30.9346V33ZM33.8564 27.0811C33.8564 25.9424 34.0785 24.9183 34.5225 24.0088C34.9736 23.0993 35.5967 22.3975 36.3916 21.9033C37.1937 21.4092 38.1068 21.1621 39.1309 21.1621C40.7135 21.1621 41.9919 21.71 42.9658 22.8057C43.9469 23.9014 44.4375 25.3587 44.4375 27.1777V27.3174C44.4375 28.4489 44.2191 29.4658 43.7822 30.3682C43.3525 31.2633 42.7331 31.9616 41.9238 32.4629C41.1217 32.9642 40.1979 33.2148 39.1523 33.2148C37.5768 33.2148 36.2985 32.667 35.3174 31.5713C34.3434 30.4756 33.8564 29.0254 33.8564 27.2207V27.0811ZM35.8545 27.3174C35.8545 28.6064 36.1517 29.6413 36.7461 30.4219C37.3477 31.2025 38.1497 31.5928 39.1523 31.5928C40.1621 31.5928 40.9642 31.1989 41.5586 30.4111C42.153 29.6162 42.4502 28.5062 42.4502 27.0811C42.4502 25.8063 42.1458 24.7751 41.5371 23.9873C40.9355 23.1924 40.1335 22.7949 39.1309 22.7949C38.1497 22.7949 37.3584 23.1852 36.7568 23.9658C36.1553 24.7464 35.8545 25.8636 35.8545 27.3174ZM46.0596 31.3779L46.7471 30.5293C47.5205 29.5267 47.9609 28.0228 48.0684 26.0176L48.251 21.377H55.7383V31.3779H57.2314V36.416H55.2441V33H47.1338V36.416H45.1465L45.1572 31.3779H46.0596ZM48.4121 31.3779H53.751V23.2139H50.1738L50.0557 25.9854C49.9339 28.2985 49.3861 30.096 48.4121 31.3779ZM69.252 27.3174C69.252 29.0863 68.8473 30.5114 68.0381 31.5928C67.2288 32.6742 66.1331 33.2148 64.751 33.2148C63.3402 33.2148 62.2301 32.7673 61.4209 31.8721V37.4688H59.4336V21.377H61.249L61.3457 22.666C62.1549 21.6634 63.2793 21.1621 64.7188 21.1621C66.1152 21.1621 67.2181 21.6885 68.0273 22.7412C68.8438 23.7939 69.252 25.2585 69.252 27.1348V27.3174ZM67.2646 27.0918C67.2646 25.7812 66.9854 24.7464 66.4268 23.9873C65.8682 23.2282 65.1019 22.8486 64.1279 22.8486C62.9248 22.8486 62.0225 23.3822 61.4209 24.4492V30.0029C62.0153 31.0628 62.9248 31.5928 64.1494 31.5928C65.1019 31.5928 65.8574 31.2168 66.416 30.4648C66.9818 29.7057 67.2646 28.5814 67.2646 27.0918ZM71.2607 27.0811C71.2607 25.9424 71.4827 24.9183 71.9268 24.0088C72.3779 23.0993 73.001 22.3975 73.7959 21.9033C74.598 21.4092 75.5111 21.1621 76.5352 21.1621C78.1178 21.1621 79.3962 21.71 80.3701 22.8057C81.3512 23.9014 81.8418 25.3587 81.8418 27.1777V27.3174C81.8418 28.4489 81.6234 29.4658 81.1865 30.3682C80.7568 31.2633 80.1374 31.9616 79.3281 32.4629C78.526 32.9642 77.6022 33.2148 76.5566 33.2148C74.9811 33.2148 73.7028 32.667 72.7217 31.5713C71.7477 30.4756 71.2607 29.0254 71.2607 27.2207V27.0811ZM73.2588 27.3174C73.2588 28.6064 73.556 29.6413 74.1504 30.4219C74.752 31.2025 75.554 31.5928 76.5566 31.5928C77.5664 31.5928 78.3685 31.1989 78.9629 30.4111C79.5573 29.6162 79.8545 28.5062 79.8545 27.0811C79.8545 25.8063 79.5501 24.7751 78.9414 23.9873C78.3398 23.1924 77.5378 22.7949 76.5352 22.7949C75.554 22.7949 74.7627 23.1852 74.1611 23.9658C73.5596 24.7464 73.2588 25.8636 73.2588 27.3174ZM89.4365 22.043C90.8975 22.043 92.0648 22.5335 92.9385 23.5146C93.8193 24.4886 94.2598 25.7741 94.2598 27.3711V27.5537C94.2598 28.6494 94.0485 29.6305 93.626 30.4971C93.2035 31.3564 92.5947 32.026 91.7998 32.5059C91.012 32.9785 90.1025 33.2148 89.0713 33.2148C87.5101 33.2148 86.2533 32.6956 85.3008 31.6572C84.3483 30.6117 83.8721 29.2116 83.8721 27.457V26.4902C83.8721 24.0482 84.3232 22.1074 85.2256 20.668C86.1351 19.2285 87.4743 18.3512 89.2432 18.0361C90.2458 17.8571 90.9225 17.6387 91.2734 17.3809C91.6243 17.123 91.7998 16.7686 91.7998 16.3174H93.4326C93.4326 17.2126 93.2285 17.9108 92.8203 18.4121C92.4193 18.9134 91.7747 19.2679 90.8867 19.4756L89.4043 19.8086C88.2227 20.0879 87.3346 20.5605 86.7402 21.2266C86.153 21.8854 85.7699 22.7663 85.5908 23.8691C86.6436 22.6517 87.9255 22.043 89.4365 22.043ZM89.0498 23.6758C88.0758 23.6758 87.3024 24.0052 86.7295 24.6641C86.1566 25.3158 85.8701 26.2217 85.8701 27.3818V27.5537C85.8701 28.7998 86.1566 29.7881 86.7295 30.5186C87.3096 31.2419 88.0902 31.6035 89.0713 31.6035C90.0596 31.6035 90.8402 31.2383 91.4131 30.5078C91.986 29.7773 92.2725 28.7103 92.2725 27.3066C92.2725 26.2109 91.9824 25.3337 91.4023 24.6748C90.8294 24.0088 90.0452 23.6758 89.0498 23.6758ZM105.797 33H103.81V28.0371H98.4707V33H96.4727V21.377H98.4707V26.415H103.81V21.377H105.797V33ZM113.821 33.2148C112.246 33.2148 110.964 32.6992 109.976 31.668C108.987 30.6296 108.493 29.2438 108.493 27.5107V27.1455C108.493 25.9925 108.712 24.9648 109.148 24.0625C109.592 23.153 110.208 22.444 110.996 21.9355C111.791 21.4199 112.65 21.1621 113.574 21.1621C115.085 21.1621 116.26 21.6598 117.098 22.6553C117.936 23.6507 118.354 25.0758 118.354 26.9307V27.7578H110.48C110.509 28.9036 110.842 29.8311 111.479 30.54C112.124 31.2419 112.94 31.5928 113.929 31.5928C114.631 31.5928 115.225 31.4495 115.712 31.1631C116.199 30.8766 116.625 30.4971 116.99 30.0244L118.204 30.9697C117.23 32.4665 115.769 33.2148 113.821 33.2148ZM113.574 22.7949C112.772 22.7949 112.099 23.0885 111.555 23.6758C111.01 24.2559 110.674 25.0723 110.545 26.125H116.367V25.9746C116.31 24.9648 116.038 24.1842 115.551 23.6328C115.064 23.0742 114.405 22.7949 113.574 22.7949ZM125.487 33.2148C123.912 33.2148 122.63 32.6992 121.642 31.668C120.653 30.6296 120.159 29.2438 120.159 27.5107V27.1455C120.159 25.9925 120.378 24.9648 120.814 24.0625C121.258 23.153 121.874 22.444 122.662 21.9355C123.457 21.4199 124.316 21.1621 125.24 21.1621C126.751 21.1621 127.926 21.6598 128.764 22.6553C129.602 23.6507 130.021 25.0758 130.021 26.9307V27.7578H122.146C122.175 28.9036 122.508 29.8311 123.146 30.54C123.79 31.2419 124.606 31.5928 125.595 31.5928C126.297 31.5928 126.891 31.4495 127.378 31.1631C127.865 30.8766 128.291 30.4971 128.656 30.0244L129.87 30.9697C128.896 32.4665 127.435 33.2148 125.487 33.2148ZM125.24 22.7949C124.438 22.7949 123.765 23.0885 123.221 23.6758C122.676 24.2559 122.34 25.0723 122.211 26.125H128.033V25.9746C127.976 24.9648 127.704 24.1842 127.217 23.6328C126.73 23.0742 126.071 22.7949 125.24 22.7949Z" fill="#97C8EB"/>
<g clip-path="url(#clip0)">
<path d="M138.928 25.9302C138.928 39.7373 150.121 50.9302 163.928 50.9302C177.736 50.9302 188.928 39.7373 188.928 25.9302C188.928 12.123 177.736 0.930176 163.928 0.930176C150.121 0.930176 138.928 12.123 138.928 25.9302ZM165.033 20.1379L172.065 27.1691C172.37 27.4742 172.522 27.8741 172.522 28.2739C172.522 29.6534 170.842 30.3658 169.855 29.3787L163.929 23.4523L158.002 29.3787C157.392 29.989 156.403 29.989 155.792 29.3787C155.182 28.7686 155.182 27.7792 155.792 27.169L162.824 20.1378C163.434 19.5276 164.423 19.5276 165.033 20.1379Z" fill="#97C8EB"/>
</g>
<defs>
<clipPath id="clip0">
<rect width="50" height="50" fill="white" transform="translate(138.928 50.9302) rotate(-90)"/>
</clipPath>
</defs>
</svg>
