<svg width="236" height="50" viewBox="0 0 236 50" fill="none" xmlns="http://www.w3.org/2000/svg">
<rect x="0.5" y="0.5" width="234" height="49" rx="24.5" stroke="#97C8EB"/>
<path d="M32.2598 32H30.1865V18.0566H22.4736V32H20.4111V16.3594H32.2598V32ZM45.5264 26.3174C45.5264 28.0863 45.1217 29.5114 44.3125 30.5928C43.5033 31.6742 42.4076 32.2148 41.0254 32.2148C39.6146 32.2148 38.5046 31.7673 37.6953 30.8721V36.4688H35.708V20.377H37.5234L37.6201 21.666C38.4294 20.6634 39.5537 20.1621 40.9932 20.1621C42.3896 20.1621 43.4925 20.6885 44.3018 21.7412C45.1182 22.7939 45.5264 24.2585 45.5264 26.1348V26.3174ZM43.5391 26.0918C43.5391 24.7812 43.2598 23.7464 42.7012 22.9873C42.1426 22.2282 41.3763 21.8486 40.4023 21.8486C39.1992 21.8486 38.2969 22.3822 37.6953 23.4492V29.0029C38.2897 30.0628 39.1992 30.5928 40.4238 30.5928C41.3763 30.5928 42.1318 30.2168 42.6904 29.4648C43.2562 28.7057 43.5391 27.5814 43.5391 26.0918ZM55.5811 20.377H57.5684V32H55.5811V23.5244L50.2207 32H48.2334V20.377H50.2207V28.8633L55.5811 20.377ZM67.4512 29.3682L71.4043 20.377H73.8857V32H71.8984V23.5459L68.1387 32H66.7637L62.9287 23.3633V32H60.9414V20.377H63.5195L67.4512 29.3682ZM81.9102 32.2148C80.3346 32.2148 79.0527 31.6992 78.0645 30.668C77.0762 29.6296 76.582 28.2438 76.582 26.5107V26.1455C76.582 24.9925 76.8005 23.9648 77.2373 23.0625C77.6813 22.153 78.2972 21.444 79.085 20.9355C79.8799 20.4199 80.7393 20.1621 81.6631 20.1621C83.1742 20.1621 84.3486 20.6598 85.1865 21.6553C86.0244 22.6507 86.4434 24.0758 86.4434 25.9307V26.7578H78.5693C78.598 27.9036 78.931 28.8311 79.5684 29.54C80.2129 30.2419 81.0293 30.5928 82.0176 30.5928C82.7194 30.5928 83.3138 30.4495 83.8008 30.1631C84.2878 29.8766 84.7139 29.4971 85.0791 29.0244L86.293 29.9697C85.319 31.4665 83.8581 32.2148 81.9102 32.2148ZM81.6631 21.7949C80.861 21.7949 80.1878 22.0885 79.6436 22.6758C79.0993 23.2559 78.7627 24.0723 78.6338 25.125H84.4561V24.9746C84.3988 23.9648 84.1266 23.1842 83.6396 22.6328C83.1527 22.0742 82.4938 21.7949 81.6631 21.7949ZM98.5713 26.3174C98.5713 28.0863 98.1667 29.5114 97.3574 30.5928C96.5482 31.6742 95.4525 32.2148 94.0703 32.2148C92.6595 32.2148 91.5495 31.7673 90.7402 30.8721V36.4688H88.7529V20.377H90.5684L90.665 21.666C91.4743 20.6634 92.5986 20.1621 94.0381 20.1621C95.4346 20.1621 96.5374 20.6885 97.3467 21.7412C98.1631 22.7939 98.5713 24.2585 98.5713 26.1348V26.3174ZM96.584 26.0918C96.584 24.7812 96.3047 23.7464 95.7461 22.9873C95.1875 22.2282 94.4212 21.8486 93.4473 21.8486C92.2441 21.8486 91.3418 22.3822 90.7402 23.4492V29.0029C91.3346 30.0628 92.2441 30.5928 93.4688 30.5928C94.4212 30.5928 95.1768 30.2168 95.7354 29.4648C96.3011 28.7057 96.584 27.5814 96.584 26.0918ZM103.276 24.3838H106.295C107.613 24.3981 108.655 24.7419 109.421 25.415C110.187 26.0882 110.57 27.0013 110.57 28.1543C110.57 29.3145 110.176 30.2454 109.389 30.9473C108.601 31.6491 107.541 32 106.209 32H101.289V20.377H103.276V24.3838ZM114.717 32H112.719V20.377H114.717V32ZM103.276 26.0059V30.3779H106.23C106.975 30.3779 107.552 30.1882 107.96 29.8086C108.368 29.4219 108.572 28.8955 108.572 28.2295C108.572 27.585 108.372 27.0586 107.971 26.6504C107.577 26.235 107.022 26.0202 106.306 26.0059H103.276ZM133.462 26.3174C133.462 28.0863 133.057 29.5114 132.248 30.5928C131.439 31.6742 130.343 32.2148 128.961 32.2148C127.55 32.2148 126.44 31.7673 125.631 30.8721V36.4688H123.644V20.377H125.459L125.556 21.666C126.365 20.6634 127.489 20.1621 128.929 20.1621C130.325 20.1621 131.428 20.6885 132.237 21.7412C133.054 22.7939 133.462 24.2585 133.462 26.1348V26.3174ZM131.475 26.0918C131.475 24.7812 131.195 23.7464 130.637 22.9873C130.078 22.2282 129.312 21.8486 128.338 21.8486C127.135 21.8486 126.232 22.3822 125.631 23.4492V29.0029C126.225 30.0628 127.135 30.5928 128.359 30.5928C129.312 30.5928 130.067 30.2168 130.626 29.4648C131.192 28.7057 131.475 27.5814 131.475 26.0918ZM143.173 32C143.058 31.7708 142.965 31.3626 142.894 30.7754C141.97 31.735 140.867 32.2148 139.585 32.2148C138.439 32.2148 137.497 31.8926 136.76 31.248C136.029 30.5964 135.664 29.7728 135.664 28.7773C135.664 27.5671 136.122 26.6289 137.039 25.9629C137.963 25.2897 139.259 24.9531 140.928 24.9531H142.861V24.04C142.861 23.3454 142.654 22.7939 142.238 22.3857C141.823 21.9704 141.211 21.7627 140.401 21.7627C139.692 21.7627 139.098 21.9417 138.618 22.2998C138.138 22.6579 137.898 23.0911 137.898 23.5996H135.9C135.9 23.0195 136.104 22.4609 136.513 21.9238C136.928 21.3796 137.487 20.9499 138.188 20.6348C138.897 20.3197 139.674 20.1621 140.52 20.1621C141.859 20.1621 142.908 20.4987 143.667 21.1719C144.426 21.8379 144.82 22.7581 144.849 23.9326V29.2822C144.849 30.3493 144.985 31.1979 145.257 31.8281V32H143.173ZM139.875 30.4854C140.498 30.4854 141.089 30.3242 141.647 30.002C142.206 29.6797 142.611 29.2607 142.861 28.7451V26.3604H141.304C138.869 26.3604 137.651 27.0729 137.651 28.498C137.651 29.1211 137.859 29.6081 138.274 29.959C138.69 30.3099 139.223 30.4854 139.875 30.4854ZM153.066 21.043C154.527 21.043 155.695 21.5335 156.568 22.5146C157.449 23.4886 157.89 24.7741 157.89 26.3711V26.5537C157.89 27.6494 157.678 28.6305 157.256 29.4971C156.833 30.3564 156.225 31.026 155.43 31.5059C154.642 31.9785 153.732 32.2148 152.701 32.2148C151.14 32.2148 149.883 31.6956 148.931 30.6572C147.978 29.6117 147.502 28.2116 147.502 26.457V25.4902C147.502 23.0482 147.953 21.1074 148.855 19.668C149.765 18.2285 151.104 17.3512 152.873 17.0361C153.876 16.8571 154.552 16.6387 154.903 16.3809C155.254 16.123 155.43 15.7686 155.43 15.3174H157.062C157.062 16.2126 156.858 16.9108 156.45 17.4121C156.049 17.9134 155.405 18.2679 154.517 18.4756L153.034 18.8086C151.853 19.0879 150.965 19.5605 150.37 20.2266C149.783 20.8854 149.4 21.7663 149.221 22.8691C150.273 21.6517 151.555 21.043 153.066 21.043ZM152.68 22.6758C151.706 22.6758 150.932 23.0052 150.359 23.6641C149.786 24.3158 149.5 25.2217 149.5 26.3818V26.5537C149.5 27.7998 149.786 28.7881 150.359 29.5186C150.939 30.2419 151.72 30.6035 152.701 30.6035C153.689 30.6035 154.47 30.2383 155.043 29.5078C155.616 28.7773 155.902 27.7103 155.902 26.3066C155.902 25.2109 155.612 24.3337 155.032 23.6748C154.459 23.0088 153.675 22.6758 152.68 22.6758ZM159.598 26.0811C159.598 24.9424 159.82 23.9183 160.264 23.0088C160.715 22.0993 161.338 21.3975 162.133 20.9033C162.935 20.4092 163.848 20.1621 164.872 20.1621C166.455 20.1621 167.733 20.71 168.707 21.8057C169.688 22.9014 170.179 24.3587 170.179 26.1777V26.3174C170.179 27.4489 169.96 28.4658 169.523 29.3682C169.094 30.2633 168.474 30.9616 167.665 31.4629C166.863 31.9642 165.939 32.2148 164.894 32.2148C163.318 32.2148 162.04 31.667 161.059 30.5713C160.085 29.4756 159.598 28.0254 159.598 26.2207V26.0811ZM161.596 26.3174C161.596 27.6064 161.893 28.6413 162.487 29.4219C163.089 30.2025 163.891 30.5928 164.894 30.5928C165.903 30.5928 166.705 30.1989 167.3 29.4111C167.894 28.6162 168.191 27.5062 168.191 26.0811C168.191 24.8063 167.887 23.7751 167.278 22.9873C166.677 22.1924 165.875 21.7949 164.872 21.7949C163.891 21.7949 163.1 22.1852 162.498 22.9658C161.896 23.7464 161.596 24.8636 161.596 26.3174ZM181.071 21.9883H177.172V32H175.185V21.9883H171.36V20.377H181.071V21.9883Z" fill="#97C8EB"/>
<path d="M211 0C197.193 0 186 11.1929 186 25C186 38.8071 197.193 50 211 50C224.807 50 236 38.8071 236 25C236 11.1929 224.807 0 211 0ZM216.792 26.1049L209.761 33.1361C209.456 33.4412 209.056 33.5938 208.656 33.5938C207.277 33.5938 206.564 31.9136 207.551 30.9266L213.478 25.0001L207.551 19.0736C206.941 18.4635 206.941 17.4741 207.551 16.864C208.162 16.2538 209.151 16.2538 209.761 16.864L216.792 23.8952C217.403 24.5055 217.403 25.4947 216.792 26.1049Z" fill="#97C8EB"/>
</svg>
