<svg width="189" height="51" viewBox="0 0 189 51" fill="none" xmlns="http://www.w3.org/2000/svg">
<rect x="0.5" y="0.569824" width="188" height="49" rx="24.5" stroke="#97C8EB"/>
<path d="M30.9346 32.0698H28.8613V18.1265H21.1484V32.0698H19.0859V16.4292H30.9346V32.0698ZM33.8564 26.1509C33.8564 25.0122 34.0785 23.9881 34.5225 23.0786C34.9736 22.1691 35.5967 21.4673 36.3916 20.9731C37.1937 20.479 38.1068 20.2319 39.1309 20.2319C40.7135 20.2319 41.9919 20.7798 42.9658 21.8755C43.9469 22.9712 44.4375 24.4285 44.4375 26.2476V26.3872C44.4375 27.5187 44.2191 28.5356 43.7822 29.438C43.3525 30.3332 42.7331 31.0314 41.9238 31.5327C41.1217 32.034 40.1979 32.2847 39.1523 32.2847C37.5768 32.2847 36.2985 31.7368 35.3174 30.6411C34.3434 29.5454 33.8564 28.0952 33.8564 26.2905V26.1509ZM35.8545 26.3872C35.8545 27.6763 36.1517 28.7111 36.7461 29.4917C37.3477 30.2723 38.1497 30.6626 39.1523 30.6626C40.1621 30.6626 40.9642 30.2687 41.5586 29.481C42.153 28.686 42.4502 27.576 42.4502 26.1509C42.4502 24.8761 42.1458 23.8449 41.5371 23.0571C40.9355 22.2622 40.1335 21.8647 39.1309 21.8647C38.1497 21.8647 37.3584 22.255 36.7568 23.0356C36.1553 23.8162 35.8545 24.9334 35.8545 26.3872ZM46.0596 30.4478L46.7471 29.5991C47.5205 28.5965 47.9609 27.0926 48.0684 25.0874L48.251 20.4468H55.7383V30.4478H57.2314V35.4858H55.2441V32.0698H47.1338V35.4858H45.1465L45.1572 30.4478H46.0596ZM48.4121 30.4478H53.751V22.2837H50.1738L50.0557 25.0552C49.9339 27.3683 49.3861 29.1659 48.4121 30.4478ZM69.252 26.3872C69.252 28.1561 68.8473 29.5812 68.0381 30.6626C67.2288 31.744 66.1331 32.2847 64.751 32.2847C63.3402 32.2847 62.2301 31.8371 61.4209 30.9419V36.5386H59.4336V20.4468H61.249L61.3457 21.7358C62.1549 20.7332 63.2793 20.2319 64.7188 20.2319C66.1152 20.2319 67.2181 20.7583 68.0273 21.811C68.8438 22.8638 69.252 24.3283 69.252 26.2046V26.3872ZM67.2646 26.1616C67.2646 24.8511 66.9854 23.8162 66.4268 23.0571C65.8682 22.298 65.1019 21.9185 64.1279 21.9185C62.9248 21.9185 62.0225 22.452 61.4209 23.519V29.0728C62.0153 30.1326 62.9248 30.6626 64.1494 30.6626C65.1019 30.6626 65.8574 30.2866 66.416 29.5347C66.9818 28.7756 67.2646 27.6512 67.2646 26.1616ZM71.2607 26.1509C71.2607 25.0122 71.4827 23.9881 71.9268 23.0786C72.3779 22.1691 73.001 21.4673 73.7959 20.9731C74.598 20.479 75.5111 20.2319 76.5352 20.2319C78.1178 20.2319 79.3962 20.7798 80.3701 21.8755C81.3512 22.9712 81.8418 24.4285 81.8418 26.2476V26.3872C81.8418 27.5187 81.6234 28.5356 81.1865 29.438C80.7568 30.3332 80.1374 31.0314 79.3281 31.5327C78.526 32.034 77.6022 32.2847 76.5566 32.2847C74.9811 32.2847 73.7028 31.7368 72.7217 30.6411C71.7477 29.5454 71.2607 28.0952 71.2607 26.2905V26.1509ZM73.2588 26.3872C73.2588 27.6763 73.556 28.7111 74.1504 29.4917C74.752 30.2723 75.554 30.6626 76.5566 30.6626C77.5664 30.6626 78.3685 30.2687 78.9629 29.481C79.5573 28.686 79.8545 27.576 79.8545 26.1509C79.8545 24.8761 79.5501 23.8449 78.9414 23.0571C78.3398 22.2622 77.5378 21.8647 76.5352 21.8647C75.554 21.8647 74.7627 22.255 74.1611 23.0356C73.5596 23.8162 73.2588 24.9334 73.2588 26.3872ZM89.4365 21.1128C90.8975 21.1128 92.0648 21.6034 92.9385 22.5845C93.8193 23.5584 94.2598 24.8439 94.2598 26.4409V26.6235C94.2598 27.7192 94.0485 28.7004 93.626 29.5669C93.2035 30.4263 92.5947 31.0959 91.7998 31.5757C91.012 32.0483 90.1025 32.2847 89.0713 32.2847C87.5101 32.2847 86.2533 31.7655 85.3008 30.7271C84.3483 29.6815 83.8721 28.2814 83.8721 26.5269V25.5601C83.8721 23.118 84.3232 21.1772 85.2256 19.7378C86.1351 18.2983 87.4743 17.4211 89.2432 17.106C90.2458 16.9269 90.9225 16.7085 91.2734 16.4507C91.6243 16.1929 91.7998 15.8384 91.7998 15.3872H93.4326C93.4326 16.2824 93.2285 16.9806 92.8203 17.4819C92.4193 17.9832 91.7747 18.3377 90.8867 18.5454L89.4043 18.8784C88.2227 19.1577 87.3346 19.6304 86.7402 20.2964C86.153 20.9552 85.7699 21.8361 85.5908 22.939C86.6436 21.7215 87.9255 21.1128 89.4365 21.1128ZM89.0498 22.7456C88.0758 22.7456 87.3024 23.075 86.7295 23.7339C86.1566 24.3856 85.8701 25.2915 85.8701 26.4517V26.6235C85.8701 27.8696 86.1566 28.8579 86.7295 29.5884C87.3096 30.3117 88.0902 30.6733 89.0713 30.6733C90.0596 30.6733 90.8402 30.3081 91.4131 29.5776C91.986 28.8472 92.2725 27.7801 92.2725 26.3765C92.2725 25.2808 91.9824 24.4035 91.4023 23.7446C90.8294 23.0786 90.0452 22.7456 89.0498 22.7456ZM105.797 32.0698H103.81V27.1069H98.4707V32.0698H96.4727V20.4468H98.4707V25.4849H103.81V20.4468H105.797V32.0698ZM113.821 32.2847C112.246 32.2847 110.964 31.769 109.976 30.7378C108.987 29.6994 108.493 28.3136 108.493 26.5806V26.2153C108.493 25.0623 108.712 24.0347 109.148 23.1323C109.592 22.2228 110.208 21.5138 110.996 21.0054C111.791 20.4897 112.65 20.2319 113.574 20.2319C115.085 20.2319 116.26 20.7297 117.098 21.7251C117.936 22.7205 118.354 24.1457 118.354 26.0005V26.8276H110.48C110.509 27.9735 110.842 28.9009 111.479 29.6099C112.124 30.3117 112.94 30.6626 113.929 30.6626C114.631 30.6626 115.225 30.5194 115.712 30.2329C116.199 29.9465 116.625 29.5669 116.99 29.0942L118.204 30.0396C117.23 31.5363 115.769 32.2847 113.821 32.2847ZM113.574 21.8647C112.772 21.8647 112.099 22.1584 111.555 22.7456C111.01 23.3257 110.674 24.1421 110.545 25.1948H116.367V25.0444C116.31 24.0347 116.038 23.2541 115.551 22.7026C115.064 22.144 114.405 21.8647 113.574 21.8647ZM125.487 32.2847C123.912 32.2847 122.63 31.769 121.642 30.7378C120.653 29.6994 120.159 28.3136 120.159 26.5806V26.2153C120.159 25.0623 120.378 24.0347 120.814 23.1323C121.258 22.2228 121.874 21.5138 122.662 21.0054C123.457 20.4897 124.316 20.2319 125.24 20.2319C126.751 20.2319 127.926 20.7297 128.764 21.7251C129.602 22.7205 130.021 24.1457 130.021 26.0005V26.8276H122.146C122.175 27.9735 122.508 28.9009 123.146 29.6099C123.79 30.3117 124.606 30.6626 125.595 30.6626C126.297 30.6626 126.891 30.5194 127.378 30.2329C127.865 29.9465 128.291 29.5669 128.656 29.0942L129.87 30.0396C128.896 31.5363 127.435 32.2847 125.487 32.2847ZM125.24 21.8647C124.438 21.8647 123.765 22.1584 123.221 22.7456C122.676 23.3257 122.34 24.1421 122.211 25.1948H128.033V25.0444C127.976 24.0347 127.704 23.2541 127.217 22.7026C126.73 22.144 126.071 21.8647 125.24 21.8647Z" fill="#97C8EB"/>
<g clip-path="url(#clip0)">
<path d="M138.928 25C138.928 38.8071 150.121 50 163.928 50C177.736 50 188.928 38.8071 188.928 25C188.928 11.1929 177.736 0 163.928 0C150.121 0 138.928 11.1929 138.928 25ZM165.033 19.2077L172.065 26.239C172.37 26.544 172.522 26.9439 172.522 27.3437C172.522 28.7232 170.842 29.4356 169.855 28.4485L163.929 22.5222L158.002 28.4485C157.392 29.0588 156.403 29.0588 155.792 28.4485C155.182 27.8384 155.182 26.849 155.792 26.2389L162.824 19.2076C163.434 18.5975 164.423 18.5975 165.033 19.2077Z" fill="#97C8EB"/>
</g>
<defs>
<clipPath id="clip0">
<rect width="50" height="50" fill="white" transform="translate(138.928 50) rotate(-90)"/>
</clipPath>
</defs>
</svg>
