<svg width="35" height="35" viewBox="0 0 35 35" fill="none" xmlns="http://www.w3.org/2000/svg">
<g clip-path="url(#clip0)">
<path d="M12.1027 14.3939H0.88556C0.396729 14.3939 0 14.886 0 15.4923C0 16.0987 0.396729 16.5908 0.88556 16.5908H12.1027C12.5916 16.5908 12.9883 16.0987 12.9883 15.4923C12.9883 14.886 12.5916 14.3939 12.1027 14.3939Z" fill="#97C8EB"/>
<path d="M7.90985 10C7.68729 10 7.46493 10.0892 7.29562 10.2684C6.95615 10.6261 6.95615 11.2057 7.29562 11.5632L11.0268 15.4925L7.29562 19.4219C6.95615 19.7794 6.95615 20.3591 7.29562 20.7166C7.6353 21.0743 8.18567 21.0743 8.52515 20.7166L12.8704 16.1405C13.2099 15.7829 13.2099 15.2033 12.8704 14.8458L8.52515 10.2697C8.35477 10.0892 8.13242 10 7.90985 10V10Z" fill="#97C8EB"/>
<path d="M23.3336 34.9999C23.6458 34.9999 23.9419 34.9561 24.2377 34.8642L33.0139 31.9404C34.208 31.5233 35 30.4106 35 29.1668L35 2.91764C35 1.30911 33.6919 0.000976562 32.0833 0.000976562C31.7715 0.000976562 31.4753 0.044768 31.1792 0.136623L22.4033 3.0605C21.2089 3.47758 20.4172 4.59026 20.4172 5.83404L20.4172 32.0832C20.4172 33.6918 21.7251 34.9999 23.3336 34.9999ZM32.0833 2.18841C32.4844 2.18841 32.8126 2.51658 32.8126 2.91764L32.8126 29.1668C32.8126 29.4774 32.604 29.766 32.3066 29.8696L23.5715 32.7804C23.5088 32.8007 23.4271 32.8125 23.3336 32.8125C22.9325 32.8125 22.6046 32.4843 22.6046 32.0832L22.6046 5.83404C22.6046 5.52349 22.8132 5.23485 23.1106 5.13124L31.8457 2.22045C31.9084 2.20016 31.9901 2.18841 32.0833 2.18841V2.18841Z" fill="#97C8EB"/>
<path d="M12.7609 11.6674C13.3646 11.6674 13.8546 11.1774 13.8546 10.5737L13.8546 4.01136C13.8546 3.00656 14.6725 2.18841 15.6773 2.18841L32.083 2.18841C32.6868 2.18841 33.1768 1.69843 33.1768 1.09469C33.1768 0.490959 32.6868 0.000976562 32.083 0.000976562L15.6773 0.000976562C13.465 0.000976562 11.6672 1.79909 11.6672 4.01136L11.6672 10.5737C11.6672 11.1774 12.1572 11.6674 12.7609 11.6674Z" fill="#97C8EB"/>
<path d="M15.6775 30.6249L21.5108 30.6249C22.1145 30.6249 22.6045 30.1349 22.6045 29.5312C22.6045 28.9274 22.1145 28.4375 21.5108 28.4375L15.6775 28.4375C14.6727 28.4375 13.8548 27.6193 13.8548 26.6145L13.8548 20.0522C13.8548 19.4485 13.3648 18.9585 12.7611 18.9585C12.1573 18.9585 11.6673 19.4485 11.6673 20.0522L11.6673 26.6145C11.6673 28.8268 13.4652 30.6249 15.6775 30.6249V30.6249Z" fill="#97C8EB"/>
</g>
<defs>
<clipPath id="clip0">
<rect width="35" height="35" fill="white" transform="matrix(-1 0 0 1 35 0)"/>
</clipPath>
</defs>
</svg>
